<?xml version="1.0" standalone="no"?>
<!DOCTYPE svg PUBLIC "-//W3C//DTD SVG 1.1//EN" "http://www.w3.org/Graphics/SVG/1.1/DTD/svg11.dtd" >
<svg xmlns="http://www.w3.org/2000/svg">
<metadata>
Created by FontPrep 20130207 at Sat Jul 25 11:57:11 2015
 By Gregorio Setti
Generated by Fontographer 4.1J
</metadata>
<defs>
<font id="be0cd6a30dae18bf7640c6b25c4ce317" horiz-adv-x='1024' >
  <font-face 
    font-family="Onesize"
    font-weight="400"
    font-stretch="normal"
    units-per-em="2048"
    panose-1="0 0 4 0 0 0 0 0 0 0"
    ascent="1536"
    descent="-512"
    x-height="854"
    cap-height="1194"
    bbox="170 -342 1706 1366"
    underline-thickness="40"
    underline-position="-252"
    unicode-range="U+0020-00A0"
  />
<missing-glyph horiz-adv-x="1024" 
 />
    <glyph glyph-name=".notdef" horiz-adv-x="1024" 
 />
    <glyph glyph-name=".null" horiz-adv-x="0" 
 />
    <glyph glyph-name="nonmarkingreturn" horiz-adv-x="681" 
 />
    <glyph glyph-name="space" unicode=" " horiz-adv-x="681" 
 />
    <glyph glyph-name="exclam" unicode="!" horiz-adv-x="681" 
d="M512 0h-342v170h342v-170zM512 342h-342v852h342v-852z" />
    <glyph glyph-name="quotedbl" unicode="&#x22;" horiz-adv-x="854" 
d="M682 1366v-342h-170v342h170zM342 1366v-342h-172v342h172z" />
    <glyph glyph-name="numbersign" unicode="#" horiz-adv-x="1536" 
d="M682 854h172v170h-172v-170zM1194 1366v-172h172v-170h-172v-170h172v-172h-172v-170h-340v170h-172v-170h-340v170h-172v172h172v170h-172v170h172v172h340v-172h172v172h340z" />
    <glyph glyph-name="dollar" unicode="$" horiz-adv-x="1536" 
d="M1024 512h-170v-342h170v342zM682 682v342h-170v-342h170zM1366 854h-342v170h-170v-342h340v-170h172v-342h-172v-170h-340v-170h-172v170h-340v170h-172v172h342v-172h170v342h-340v170h-172v342h172v170h340v172h172v-172h340v-170h172v-170z" />
    <glyph glyph-name="percent" unicode="%" horiz-adv-x="1878" 
d="M1536 1194v-170h-170v170h170zM1194 170h172v172h-172v-172zM1536 342h170v-172h-170v-170h-512v170h-170v172h170v170h512v-170zM342 0v170h170v-170h-170zM512 854h170v170h-170v-170zM1366 1024v-170h-172v170h172zM1194 854v-172h-170v172h170zM512 170v172h170v-172
h-170zM854 342h-172v170h172v-170zM1024 512h-170v170h170v-170zM854 682h-512v172h-172v170h172v170h512v-170h170v-170h-170v-172z" />
    <glyph glyph-name="ampersand" unicode="&#x26;" horiz-adv-x="1536" 
d="M1024 512v-170h170v170h172v-170h-172v-172h172v-170h-342v170h-170v172h-172v170h-170v-342h342v-170h-512v170h-172v342h342v170h-170v172h-172v170h172v170h682v-170h170v-170h-170v-172h-170v-170h170zM512 682h170v172h172v170h-342v-342z" />
    <glyph glyph-name="quotesingle" unicode="'" horiz-adv-x="512" 
d="M342 1366v-342h-172v342h172z" />
    <glyph glyph-name="parenleft" unicode="(" horiz-adv-x="854" 
d="M682 0h-170v170h170v-170zM342 854v170h170v-854h-170v172h-172v512h172zM512 1024v170h170v-170h-170z" />
    <glyph glyph-name="parenright" unicode=")" horiz-adv-x="854" 
d="M170 0v170h172v-170h-172zM170 1194h172v-170h170v-170h170v-512h-170v-172h-170v854h-172v170z" />
    <glyph glyph-name="asterisk" unicode="*" 
d="M1194 512h-170v170h170v-170zM172 512v170h170v-170h-170zM854 1194v-342h170v170h170v-170h-170v-170h-170v-342h-342v342h-170v170h170v342h342zM172 1022h170v-170h-170v170z" />
    <glyph glyph-name="plus" unicode="+" 
d="M854 682h340v-170h-340v-342h-342v342h-342v170h342v342h342v-342z" />
    <glyph glyph-name="comma" unicode="," horiz-adv-x="854" 
d="M342 342h340v-342h-170v-170h-342v170h172v342z" />
    <glyph glyph-name="hyphen" unicode="-" horiz-adv-x="1193" 
d="M170 682h854v-170h-854v170z" />
    <glyph glyph-name="hyphen" unicode="&#x2010;" horiz-adv-x="1193" 
d="M170 682h854v-170h-854v170z" />
    <glyph glyph-name="period" unicode="." horiz-adv-x="681" 
d="M170 342h342v-342h-342v342z" />
    <glyph glyph-name="slash" unicode="/" horiz-adv-x="1193" 
d="M682 1364h342v-170h-172v-342h-170v-340h-170v-342h-170v-170h-172v340h172v342h170v340h170v342z" />
    <glyph glyph-name="zero" unicode="0" 
d="M854 170v854h-342v-854h342zM1024 1194v-170h170v-854h-170v-170h-682v170h-172v854h172v170h682z" />
    <glyph glyph-name="one" unicode="1" horiz-adv-x="854" 
d="M342 0v854h-172v170h172v170h340v-1194h-340z" />
    <glyph glyph-name="two" unicode="2" 
d="M1024 1194v-170h170v-342h-170v-170h-170v-170h-172v-172h512v-170h-1024v170h172v172h170v170h170v170h172v342h-342v-170h-342v170h172v170h682z" />
    <glyph glyph-name="three" unicode="3" 
d="M1024 1194v-170h170v-342h-170v-170h170v-342h-170v-170h-682v170h-172v172h342v-172h342v342h-342v170h342v342h-342v-170h-342v170h172v170h682z" />
    <glyph glyph-name="four" unicode="4" 
d="M1024 1194v-682h170v-170h-170v-342h-342v342h-512v340h172v-170h340v342h-170v170h170v170h342zM342 682v172h170v-172h-170z" />
    <glyph glyph-name="five" unicode="5" 
d="M170 1194h1024v-170h-682v-170h512v-172h170v-512h-170v-170h-682v170h-172v172h342v-172h342v512h-684v512z" />
    <glyph glyph-name="six" unicode="6" 
d="M854 170v512h-342v-512h342zM1024 854v-172h170v-512h-170v-170h-682v170h-172v854h172v170h682v-170h-512v-170h512z" />
    <glyph glyph-name="seven" unicode="7" 
d="M170 1194h1024v-512h-170v-170h-170v-512h-342v512h170v170h172v342h-684v170z" />
    <glyph glyph-name="eight" unicode="8" 
d="M854 682v342h-342v-342h342zM854 170v342h-342v-342h342zM1024 1194v-170h170v-342h-170v-170h170v-342h-170v-170h-682v170h-172v342h172v170h-172v342h172v170h682z" />
    <glyph glyph-name="nine" unicode="9" 
d="M512 512h342v512h-342v-512zM1024 1024h170v-854h-170v-170h-682v170h512v172h-512v170h-172v512h172v170h682v-170z" />
    <glyph glyph-name="colon" unicode=":" horiz-adv-x="681" 
d="M170 342h342v-342h-342v342zM170 1024h342v-342h-342v342z" />
    <glyph glyph-name="semicolon" unicode=";" horiz-adv-x="854" 
d="M342 342h340v-342h-170v-170h-342v170h172v342zM342 1024h340v-342h-340v342z" />
    <glyph glyph-name="less" unicode="&#x3c;" horiz-adv-x="1024" 
d="M342 342v170h-172v170h172v172h170v170h170v170h172v-340h-172v-172h-170v-170h170v-170h172v-342h-172v170h-170v172h-170z" />
    <glyph glyph-name="equal" unicode="=" horiz-adv-x="1193" 
d="M170 512h854v-170h-854v170zM170 854h854v-172h-854v172z" />
    <glyph glyph-name="greater" unicode="&#x3e;" horiz-adv-x="1024" 
d="M682 854v-172h172v-170h-172v-170h-170v-172h-170v-170h-172v342h172v170h170v170h-170v172h-172v340h172v-170h170v-170h170z" />
    <glyph glyph-name="question" unicode="?" horiz-adv-x="1363" 
d="M512 170h340v-170h-340v170zM1024 1194v-172h170v-340h-170v-170h-172v-172h-340v172h170v170h170v340h-340v-170h-342v170h172v172h682z" />
    <glyph glyph-name="at" unicode="@" 
d="M682 682h-170v-170h170v170zM1024 1194v-170h170v-512h-170v-170h-512v-172h512v-170h-682v170h-172v854h172v170h682zM854 854v-342h170v342h-170zM854 854v170h-342v-170h342z" />
    <glyph glyph-name="A" unicode="A" 
d="M854 682v342h-342v-342h342zM1024 1194v-170h170v-1024h-340v512h-342v-512h-342v1024h172v170h682z" />
    <glyph glyph-name="B" unicode="B" 
d="M854 682v342h-342v-342h342zM854 170v342h-342v-342h342zM1024 1194v-170h170v-342h-170v-170h170v-342h-170v-170h-854v1194h854z" />
    <glyph glyph-name="C" unicode="C" 
d="M1024 1194v-170h170v-170h-340v170h-342v-854h342v172h340v-172h-170v-170h-682v170h-172v854h172v170h682z" />
    <glyph glyph-name="D" unicode="D" 
d="M854 170v854h-342v-854h342zM1024 1194v-170h170v-854h-170v-170h-854v1194h854z" />
    <glyph glyph-name="E" unicode="E" 
d="M170 1194h1024v-170h-682v-342h512v-170h-512v-342h682v-170h-1024v1194z" />
    <glyph glyph-name="F" unicode="F" 
d="M170 1194h1024v-170h-682v-342h512v-170h-512v-512h-342v1194z" />
    <glyph glyph-name="G" unicode="G" 
d="M1024 1194v-170h170v-170h-340v170h-342v-854h342v342h-172v170h512v-512h-170v-170h-682v170h-172v854h172v170h682z" />
    <glyph glyph-name="H" unicode="H" 
d="M854 1194h340v-1194h-340v512h-342v-512h-342v1194h342v-512h342v512z" />
    <glyph glyph-name="I" unicode="I" horiz-adv-x="681" 
d="M170 1194h342v-1194h-342v1194z" />
    <glyph glyph-name="J" unicode="J" 
d="M854 1194h340v-1024h-170v-170h-682v170h-172v342h342v-342h342v1024z" />
    <glyph glyph-name="K" unicode="K" 
d="M854 1194h340v-170h-170v-170h-170v-172h-172v-170h172v-170h170v-172h170v-170h-340v170h-172v172h-170v-342h-342v1194h342v-340h170v170h172v170z" />
    <glyph glyph-name="L" unicode="L" 
d="M1194 170v-170h-1024v1194h342v-1024h682z" />
    <glyph glyph-name="M" unicode="M" horiz-adv-x="1536" 
d="M1024 1194h342v-1194h-342v682h-170v-170h-172v170h-170v-682h-342v1194h342v-170h170v-170h172v170h170v170z" />
    <glyph glyph-name="N" unicode="N" 
d="M854 1194h340v-1194h-340v512h-172v170h-170v-682h-342v1194h342v-170h170v-170h172v340z" />
    <glyph glyph-name="O" unicode="O" 
d="M854 170v854h-342v-854h342zM1024 1194v-170h170v-854h-170v-170h-682v170h-172v854h172v170h682z" />
    <glyph glyph-name="P" unicode="P" 
d="M854 682v342h-342v-342h342zM1024 1194v-170h170v-342h-170v-170h-512v-512h-342v1194h854z" />
    <glyph glyph-name="Q" unicode="Q" 
d="M854 342v682h-342v-854h170v172h172zM1024 1194v-170h170v-854h-170v-170h170v-170h-340v170h-512v170h-172v854h172v170h682z" />
    <glyph glyph-name="R" unicode="R" 
d="M854 682v342h-342v-342h342zM1024 1194v-170h170v-342h-170v-170h170v-512h-340v512h-342v-512h-342v1194h854z" />
    <glyph glyph-name="S" unicode="S" 
d="M1024 1194v-170h170v-170h-340v170h-342v-342h512v-170h170v-342h-170v-170h-682v170h-172v172h342v-172h342v342h-512v170h-172v342h172v170h682z" />
    <glyph glyph-name="T" unicode="T" 
d="M170 1194h1024v-170h-340v-1024h-342v1024h-342v170z" />
    <glyph glyph-name="U" unicode="U" 
d="M854 1194h340v-1024h-170v-170h-682v170h-172v1024h342v-1024h342v1024z" />
    <glyph glyph-name="V" unicode="V" 
d="M854 1194h340v-852h-170v-172h-170v-170h-342v170h-170v172h-172v852h342v-852h342v852z" />
    <glyph glyph-name="W" unicode="W" horiz-adv-x="1536" 
d="M512 0h-342v1194h342v-682h170v170h172v-170h170v682h342v-1194h-342v170h-170v172h-172v-172h-170v-170z" />
    <glyph glyph-name="X" unicode="X" 
d="M854 1194h340v-340h-170v-172h-170v-170h170v-170h170v-342h-340v342h-342v-342h-342v342h172v170h170v170h-170v172h-172v340h342v-340h342v340z" />
    <glyph glyph-name="Y" unicode="Y" 
d="M854 1194h340v-512h-170v-170h-170v-512h-342v512h-170v170h-172v512h342v-512h342v512z" />
    <glyph glyph-name="Z" unicode="Z" 
d="M170 1194h1024v-340h-170v-172h-170v-170h-172v-170h-170v-172h682v-170h-1024v342h172v170h170v170h170v172h172v170h-684v170z" />
    <glyph glyph-name="bracketleft" unicode="[" horiz-adv-x="854" 
d="M512 1194v-1194h170v-170h-512v1536h512v-172h-170z" />
    <glyph glyph-name="backslash" unicode="\" horiz-adv-x="1193" 
d="M512 1364v-342h170v-340h170v-342h172v-340h-172v170h-170v342h-170v340h-170v342h-172v170h342z" />
    <glyph glyph-name="bracketright" unicode="]" horiz-adv-x="854" 
d="M342 1194h-172v172h512v-1536h-512v170h172v1194z" />
    <glyph glyph-name="asciicircum" unicode="^" horiz-adv-x="1024" 
d="M170 1024v170h172v172h340v-172h-340v-170h-172zM682 1194h172v-170h-172v170z" />
    <glyph glyph-name="underscore" unicode="_" horiz-adv-x="1193" 
d="M1024 0h-854v170h854v-170z" />
    <glyph glyph-name="grave" unicode="`" horiz-adv-x="854" 
d="M170 1366h172v-172h-172v172zM342 1194h340v-170h-340v170z" />
    <glyph glyph-name="a" unicode="a" 
d="M342 854h852v-854h-340v170h-172v-170h-340v170h-172v512h172v172zM682 170v172h172v340h-342v-512h170z" />
    <glyph glyph-name="b" unicode="b" 
d="M854 170v512h-342v-512h342zM1024 854v-172h170v-512h-170v-170h-854v1194h342v-340h512z" />
    <glyph glyph-name="c" unicode="c" 
d="M1024 854v-172h170v-170h-340v170h-342v-512h682v-170h-852v170h-172v512h172v172h682z" />
    <glyph glyph-name="d" unicode="d" 
d="M854 170v512h-342v-512h342zM854 1194h340v-1194h-852v170h-172v512h172v172h512v340z" />
    <glyph glyph-name="e" unicode="e" 
d="M854 512v170h-342v-170h342zM1024 854v-172h170v-340h-682v-172h682v-170h-852v170h-172v512h172v172h682z" />
    <glyph glyph-name="f" unicode="f" horiz-adv-x="1193" 
d="M512 1194h512v-170h-342v-170h342v-172h-342v-682h-340v682h-172v172h172v170h170v170z" />
    <glyph glyph-name="g" unicode="g" 
d="M854 170v512h-342v-512h342zM342 854h852v-1024h-170v-172h-682v172h512v170h-512v170h-172v512h172v172z" />
    <glyph glyph-name="h" unicode="h" 
d="M1024 854v-172h170v-682h-340v682h-342v-682h-342v1194h342v-340h512z" />
    <glyph glyph-name="i" unicode="i" horiz-adv-x="681" 
d="M170 854h342v-854h-342v854zM170 1194h342v-170h-342v170z" />
    <glyph glyph-name="j" unicode="j" horiz-adv-x="1204" 
d="M688 854h342v-854h-172v-170h-682v170h512v854zM688 1194h342v-170h-342v170z" />
    <glyph glyph-name="k" unicode="k" 
d="M852 854h342v-172h-170v-170h-172v-170h172v-172h170v-170h-342v170h-170v172h-170v-342h-342v1194h342v-682h170v170h170v172z" />
    <glyph glyph-name="l" unicode="l" horiz-adv-x="854" 
d="M170 1194h512v-1194h-342v1024h-170v170z" />
    <glyph glyph-name="m" unicode="m" horiz-adv-x="1705" 
d="M1366 854v-172h170v-682h-342v682h-170v-682h-342v682h-170v-682h-342v854h1196z" />
    <glyph glyph-name="n" unicode="n" 
d="M1024 854v-172h170v-682h-340v682h-172v172h342zM512 854v-172h170v-170h-170v-512h-342v854h342z" />
    <glyph glyph-name="o" unicode="o" 
d="M854 170v512h-342v-512h342zM1024 854v-172h170v-512h-170v-170h-682v170h-172v512h172v172h682z" />
    <glyph glyph-name="p" unicode="p" 
d="M854 170v512h-342v-512h342zM1024 854v-172h170v-512h-170v-170h-512v-342h-342v1196h854z" />
    <glyph glyph-name="q" unicode="q" 
d="M854 170v512h-342v-512h342zM342 854h852v-1196h-340v342h-512v170h-172v512h172v172z" />
    <glyph glyph-name="r" unicode="r" 
d="M1024 854v-172h170v-170h-340v170h-172v172h342zM512 854v-172h170v-170h-170v-512h-342v854h342z" />
    <glyph glyph-name="s" unicode="s" 
d="M342 854h852v-172h-682v-170h512v-170h170v-172h-170v-170h-854v170h684v172h-512v170h-172v170h172v172z" />
    <glyph glyph-name="t" unicode="t" horiz-adv-x="1193" 
d="M682 854h342v-172h-342v-512h342v-170h-512v170h-170v512h-172v172h172v340h340v-340z" />
    <glyph glyph-name="u" unicode="u" 
d="M512 854v-684h170v-170h-340v170h-172v684h342zM854 854h340v-854h-340v170h-172v172h172v512z" />
    <glyph glyph-name="v" unicode="v" 
d="M854 854h340v-512h-170v-172h-170v-170h-342v170h-170v172h-172v512h342v-512h342v512z" />
    <glyph glyph-name="w" unicode="w" horiz-adv-x="1705" 
d="M1194 854h342v-684h-170v-170h-1024v170h-172v684h342v-684h170v684h342v-684h170v684z" />
    <glyph glyph-name="x" unicode="x" 
d="M854 854h340v-172h-170v-170h-170v-170h170v-172h170v-170h-340v170h-342v-170h-342v170h172v172h170v170h-170v170h-172v172h342v-172h342v172z" />
    <glyph glyph-name="y" unicode="y" 
d="M854 854h340v-1024h-170v-172h-682v172h512v170h-512v170h-172v684h342v-684h342v684z" />
    <glyph glyph-name="z" unicode="z" 
d="M170 854h1024v-172h-170v-170h-170v-170h-172v-172h512v-170h-1024v170h172v172h170v170h170v170h-512v172z" />
    <glyph glyph-name="braceleft" unicode="{" horiz-adv-x="1024" 
d="M342 512h-172v170h172v512h170v172h342v-172h-172v-512h-170v-170h170v-512h172v-170h-342v170h-170v512z" />
    <glyph glyph-name="bar" unicode="|" horiz-adv-x="681" 
d="M170 1366h342v-1536h-342v1536z" />
    <glyph glyph-name="braceright" unicode="}" horiz-adv-x="1024" 
d="M682 682h172v-170h-172v-512h-170v-170h-342v170h172v512h170v170h-170v512h-172v172h342v-172h170v-512z" />
    <glyph glyph-name="asciitilde" unicode="~" horiz-adv-x="1536" 
d="M1024 1366h342v-172h-172v-170h-512v170h-170v-170h-342v170h172v172h512v-172h170v172z" />
    <glyph glyph-name="nonbreakingspace" unicode="&#xa0;" horiz-adv-x="323" 
 />
  </font>
</defs>
</svg>
